<svg xmlns="http://www.w3.org/2000/svg" height="19mm" width="71mm" viewBox="0 0 71 19"><g stroke-width="0" fill="#00adee"><ellipse rx=".416" ry=".36" cy=".742" cx="23.251"/><ellipse rx=".416" ry=".353" cy="1.435" cx="23.795"/><ellipse rx=".416" ry=".353" cy=".733" cx="27.206"/><ellipse rx=".416" ry=".353" cy="1.432" cx="27.203"/><path d="M23.21.385h3.967v1.403H23.21z"/><path d="M22.835.715h4.786v.694h-4.785z"/><ellipse rx=".416" ry=".36" cy="1.424" cx="23.251"/></g><g transform="translate(0 -31)" stroke-width="0"><g fill="#00adee"><g fill-rule="evenodd"><ellipse rx="2.317" ry="1.61" cy="47.814" cx="10.304"/><ellipse rx="2.251" ry="1.61" cy="47.825" cx="17.923"/><ellipse rx="2.117" ry="1.61" cy="47.832" cx="2.53"/><path d="M5.037 34.198c-2.547 0-4.612 1.364-4.612 3.047.002 1.59 1.74 1.4 4.14 1.522l.115-.05h3.323v.856c1.042-.578 1.644-1.43 1.646-2.33 0-1.682-2.066-3.045-4.613-3.046zM15.567 34.195a4.612 3.03 0 0 1 4.612 3.03 4.612 3.03 0 0 1-4.256 3.02v-1.553H12.6v.85a4.612 3.03 0 0 1-1.645-2.316 4.612 3.03 0 0 1 4.612-3.03z"/></g><path d="M.42 37.366h4.225v10.55H.42zM7.99 37.418h4.635V47.88H7.99zM15.67 37.315h4.506v10.478H15.67z"/><ellipse rx="2.436" ry="2.392" cy="47.049" cx="32.474"/><ellipse rx=".14" ry=".029" cy="46.435" cx="33.073"/><ellipse rx="2.422" ry="2.363" cy="36.403" cx="32.485"/><ellipse rx="2.345" ry="2.363" cy="47.06" cx="25.356"/><ellipse rx="2.348" ry="2.363" cy="36.462" cx="25.362"/><path d="M23.015 36.586h4.688v10.5h-4.688z"/></g><g fill="#7f7f7f"><path d="M58.855 34.515h11.87v1.066h-11.87z"/><path d="M58.855 35.448h1.132v2.734h-1.132zM69.6 35.507h1.102v2.653H69.6zM64.213 35.502h1.117V48.5h-1.117z"/><path d="M61.964 48.317h5.652v1.14h-5.652zM50.943 48.3h5.652v1.138h-5.652z"/></g><path fill="#787878" d="M53.18 35.446H54.3v12.988H53.18z"/><path fill="#7f7f7f" d="M50.95 34.496h5.653v1.14H50.95zM46.15 41.265h3.39v.853h-3.39z"/><path d="M30.773 38.067l3.56 3.477 3.32-3.2-3.41-3.565z" fill-rule="evenodd" fill="#00adee"/><ellipse rx="2.422" ry="2.363" cy="36.389" cx="42.899" fill="#7f7f7f"/><ellipse rx="2.422" ry="2.363" cy="47.068" cx="42.936" fill="#7f7f7f"/><g fill-rule="evenodd"><path d="M34.32 41.54l3.33-3.2 3.328 3.347-3.28 3.25z" fill="#005676"/><path d="M30.795 45.326l3.534-3.78 3.378 3.398-3.26 3.52z" fill="#00adee"/><path d="M41.106 48.618l-3.4-3.687 3.276-3.246 3.813 3.847-3.66 3.103z" fill="#7f7f7f"/><path d="M41.187 34.728l-3.57 3.626 3.36 3.34 3.9-3.916z" fill="#7f7f7f"/></g><path fill="#00adee" d="M4.88 34.196h10.903v3.716H4.88z"/></g></svg>