<svg id="svg3464" xmlns="http://www.w3.org/2000/svg" width="370" height="180" viewBox="0 0 370 180">
  <title>logo</title>
  <polygon points="223.81 119.74 205.5 119.74 196.22 105.96 205.34 92.32 223.81 119.74" style="fill: #ff8d4e"/>
  <polygon points="223.73 59.98 205.43 59.98 196.36 72.29 205.56 84.88 223.73 59.98" style="fill: #92929a"/>
  <polygon points="202.82 88.68 181.84 60.07 163.53 60.07 184.44 88.68 163.46 119.83 181.77 119.83 202.82 88.68" style="fill: #2c233d"/>
  <path d="M93.54,82.05l24.35-22.22H125v59.94H109.18V89L93.54,103.31,77.81,89.09v30.69H62V59.83h7.11Z" style="fill: #2c233d"/>
  <path d="M136.54,59.83h15.73v59.94H136.54Z" style="fill: #2c233d"/>
  <path d="M235.43,59.83h15.73v59.94H235.43Z" style="fill: #ff8d4e"/>
  <path d="M260.88,59.83H308V75.48H292.13v44.3H276.42V75.48H260.88Z" style="fill: #ff8d4e"/>
</svg>
